<?xml version="1.0" encoding="UTF-8"?>
<svg xmlns="http://www.w3.org/2000/svg" xmlns:xlink="http://www.w3.org/1999/xlink" width="854" height="480" viewBox="0 0 854 480">
<defs>
<g>
<g id="glyph-0-0">
<path d="M 17.636719 0 L 11.515625 0 L 11.515625 -0.695312 C 11.734375 -0.699219 12.019531 -0.722656 12.367188 -0.761719 C 12.714844 -0.800781 12.957031 -0.855469 13.085938 -0.929688 C 13.289062 -1.050781 13.4375 -1.191406 13.53125 -1.351562 C 13.625 -1.511719 13.671875 -1.710938 13.671875 -1.953125 L 13.671875 -12.03125 L 13.523438 -12.03125 L 8.796875 -0.226562 L 8.3125 -0.226562 L 3.808594 -12.273438 L 3.679688 -12.273438 L 3.679688 -4.003906 C 3.679688 -3.203125 3.730469 -2.59375 3.832031 -2.179688 C 3.933594 -1.761719 4.089844 -1.460938 4.296875 -1.28125 C 4.441406 -1.140625 4.734375 -1.011719 5.1875 -0.890625 C 5.632812 -0.765625 5.929688 -0.699219 6.0625 -0.695312 L 6.0625 0 L 0.46875 0 L 0.46875 -0.695312 C 0.761719 -0.71875 1.070312 -0.769531 1.390625 -0.839844 C 1.714844 -0.910156 1.960938 -1.019531 2.140625 -1.164062 C 2.367188 -1.34375 2.523438 -1.625 2.609375 -2 C 2.691406 -2.378906 2.734375 -3.011719 2.734375 -3.898438 L 2.734375 -10.984375 C 2.734375 -11.398438 2.6875 -11.730469 2.585938 -11.992188 C 2.492188 -12.253906 2.351562 -12.464844 2.167969 -12.625 C 1.964844 -12.804688 1.71875 -12.933594 1.425781 -13.015625 C 1.132812 -13.101562 0.84375 -13.152344 0.554688 -13.164062 L 0.554688 -13.859375 L 5.28125 -13.859375 L 9.25 -3.457031 L 12.640625 -12.15625 C 12.761719 -12.476562 12.867188 -12.808594 12.957031 -13.160156 C 13.042969 -13.507812 13.089844 -13.738281 13.097656 -13.859375 L 17.617188 -13.859375 L 17.617188 -13.164062 C 17.433594 -13.15625 17.203125 -13.128906 16.917969 -13.078125 C 16.636719 -13.023438 16.429688 -12.976562 16.296875 -12.929688 C 16.078125 -12.851562 15.925781 -12.722656 15.851562 -12.539062 C 15.769531 -12.355469 15.730469 -12.15625 15.734375 -11.945312 L 15.734375 -1.953125 C 15.730469 -1.726562 15.769531 -1.53125 15.851562 -1.375 C 15.925781 -1.21875 16.078125 -1.082031 16.296875 -0.96875 C 16.414062 -0.902344 16.625 -0.839844 16.921875 -0.785156 C 17.222656 -0.730469 17.460938 -0.699219 17.636719 -0.695312 Z "/>
</g>
<g id="glyph-0-1">
<path d="M 9.257812 -2.265625 C 8.855469 -1.496094 8.3125 -0.886719 7.636719 -0.429688 C 6.960938 0.0273438 6.179688 0.253906 5.304688 0.253906 C 4.527344 0.253906 3.847656 0.117188 3.265625 -0.15625 C 2.683594 -0.429688 2.203125 -0.800781 1.828125 -1.269531 C 1.449219 -1.738281 1.167969 -2.285156 0.980469 -2.910156 C 0.796875 -3.535156 0.703125 -4.195312 0.703125 -4.890625 C 0.703125 -5.515625 0.800781 -6.132812 1 -6.734375 C 1.199219 -7.335938 1.492188 -7.878906 1.875 -8.359375 C 2.246094 -8.820312 2.707031 -9.195312 3.257812 -9.476562 C 3.808594 -9.761719 4.421875 -9.902344 5.109375 -9.902344 C 5.8125 -9.902344 6.414062 -9.792969 6.914062 -9.570312 C 7.414062 -9.347656 7.820312 -9.046875 8.132812 -8.664062 C 8.433594 -8.296875 8.65625 -7.867188 8.804688 -7.375 C 8.949219 -6.878906 9.023438 -6.339844 9.023438 -5.761719 L 9.023438 -5.117188 L 2.648438 -5.117188 C 2.648438 -4.484375 2.707031 -3.910156 2.828125 -3.394531 C 2.949219 -2.878906 3.136719 -2.425781 3.398438 -2.035156 C 3.652344 -1.65625 3.984375 -1.355469 4.394531 -1.136719 C 4.804688 -0.917969 5.292969 -0.8125 5.859375 -0.8125 C 6.4375 -0.8125 6.9375 -0.945312 7.359375 -1.21875 C 7.777344 -1.488281 8.183594 -1.980469 8.574219 -2.6875 L 9.257812 -2.265625 M 7.101562 -5.9375 C 7.101562 -6.300781 7.070312 -6.691406 7.007812 -7.105469 C 6.945312 -7.519531 6.84375 -7.867188 6.710938 -8.148438 C 6.558594 -8.445312 6.355469 -8.691406 6.09375 -8.878906 C 5.832031 -9.066406 5.5 -9.160156 5.085938 -9.160156 C 4.40625 -9.160156 3.835938 -8.875 3.382812 -8.308594 C 2.929688 -7.742188 2.6875 -6.949219 2.648438 -5.9375 Z "/>
</g>
<g id="glyph-0-2">
<path d="M 7.0625 -4.71875 C 7.328125 -4.480469 7.53125 -4.210938 7.675781 -3.90625 C 7.820312 -3.601562 7.890625 -3.226562 7.890625 -2.78125 C 7.890625 -1.890625 7.558594 -1.164062 6.890625 -0.59375 C 6.222656 -0.03125 5.359375 0.253906 4.296875 0.253906 C 3.738281 0.253906 3.222656 0.152344 2.75 -0.046875 C 2.277344 -0.25 1.941406 -0.4375 1.738281 -0.605469 L 1.542969 0.03125 L 0.8125 0.03125 L 0.710938 -3.320312 L 1.386719 -3.320312 C 1.4375 -3.066406 1.550781 -2.769531 1.71875 -2.429688 C 1.886719 -2.089844 2.09375 -1.78125 2.335938 -1.507812 C 2.585938 -1.21875 2.890625 -0.976562 3.246094 -0.78125 C 3.601562 -0.585938 4 -0.488281 4.445312 -0.488281 C 5.070312 -0.488281 5.550781 -0.628906 5.890625 -0.914062 C 6.226562 -1.199219 6.398438 -1.609375 6.398438 -2.140625 C 6.398438 -2.410156 6.34375 -2.648438 6.234375 -2.847656 C 6.128906 -3.046875 5.96875 -3.21875 5.761719 -3.367188 C 5.546875 -3.519531 5.28125 -3.652344 4.96875 -3.773438 C 4.65625 -3.894531 4.308594 -4.011719 3.925781 -4.132812 C 3.621094 -4.222656 3.28125 -4.347656 2.90625 -4.507812 C 2.53125 -4.667969 2.210938 -4.851562 1.945312 -5.070312 C 1.65625 -5.296875 1.421875 -5.578125 1.242188 -5.90625 C 1.058594 -6.242188 0.964844 -6.632812 0.96875 -7.078125 C 0.964844 -7.867188 1.257812 -8.535156 1.84375 -9.082031 C 2.429688 -9.628906 3.214844 -9.902344 4.199219 -9.902344 C 4.578125 -9.902344 4.960938 -9.851562 5.355469 -9.757812 C 5.75 -9.65625 6.070312 -9.539062 6.320312 -9.40625 L 6.542969 -9.914062 L 7.246094 -9.914062 L 7.390625 -6.816406 L 6.71875 -6.816406 C 6.582031 -7.507812 6.289062 -8.074219 5.835938 -8.507812 C 5.382812 -8.941406 4.832031 -9.160156 4.179688 -9.160156 C 3.644531 -9.160156 3.226562 -9.027344 2.921875 -8.757812 C 2.613281 -8.488281 2.460938 -8.164062 2.460938 -7.78125 C 2.460938 -7.492188 2.511719 -7.246094 2.613281 -7.050781 C 2.714844 -6.855469 2.863281 -6.6875 3.066406 -6.554688 C 3.261719 -6.421875 3.507812 -6.300781 3.804688 -6.1875 C 4.101562 -6.074219 4.464844 -5.945312 4.902344 -5.800781 C 5.332031 -5.664062 5.738281 -5.503906 6.117188 -5.320312 C 6.5 -5.140625 6.8125 -4.9375 7.0625 -4.71875 Z "/>
</g>
<g id="glyph-0-3">
<path d="M 5.371094 0 L 0.722656 0 L 0.722656 -0.644531 C 0.871094 -0.65625 1.027344 -0.671875 1.1875 -0.683594 C 1.347656 -0.695312 1.484375 -0.722656 1.601562 -0.761719 C 1.785156 -0.820312 1.917969 -0.921875 2.007812 -1.070312 C 2.09375 -1.214844 2.136719 -1.40625 2.140625 -1.640625 L 2.140625 -7.578125 C 2.136719 -7.789062 2.089844 -7.976562 1.996094 -8.148438 C 1.902344 -8.324219 1.769531 -8.46875 1.601562 -8.585938 C 1.476562 -8.664062 1.296875 -8.730469 1.0625 -8.785156 C 0.828125 -8.839844 0.617188 -8.875 0.421875 -8.886719 L 0.421875 -9.53125 L 3.820312 -9.746094 L 3.953125 -9.609375 L 3.953125 -1.757812 C 3.953125 -1.53125 4 -1.339844 4.085938 -1.191406 C 4.171875 -1.042969 4.3125 -0.929688 4.5 -0.859375 C 4.640625 -0.800781 4.78125 -0.753906 4.914062 -0.71875 C 5.050781 -0.683594 5.203125 -0.65625 5.371094 -0.644531 L 5.371094 0 M 4.148438 -13.546875 C 4.148438 -13.171875 4.027344 -12.851562 3.785156 -12.574219 C 3.539062 -12.296875 3.238281 -12.15625 2.882812 -12.15625 C 2.546875 -12.15625 2.261719 -12.289062 2.015625 -12.554688 C 1.773438 -12.816406 1.648438 -13.117188 1.648438 -13.457031 C 1.648438 -13.816406 1.773438 -14.128906 2.015625 -14.394531 C 2.261719 -14.660156 2.546875 -14.796875 2.882812 -14.796875 C 3.25 -14.796875 3.554688 -14.667969 3.792969 -14.417969 C 4.03125 -14.167969 4.148438 -13.875 4.148438 -13.546875 Z "/>
</g>
</g>
</defs>
<g fill="rgb(100%, 52.54902%, 18.431373%)" fill-opacity="1">
<use xlink:href="#glyph-0-0" x="30" y="38.339844"/>
<use xlink:href="#glyph-0-1" x="49" y="38.339844"/>
<use xlink:href="#glyph-0-2" x="59" y="38.339844"/>
<use xlink:href="#glyph-0-2" x="68" y="38.339844"/>
<use xlink:href="#glyph-0-3" x="77" y="38.339844"/>
</g>
</svg>
